<?xml version="1.0" encoding="UTF-8" standalone="no"?>
<!-- Created with Inkscape (http://www.inkscape.org/) -->

<svg
   version="1.1"
   id="svg2"
   width="1122.5197"
   height="793.70081"
   viewBox="0 0 1122.5197 793.70081"
   xmlns="http://www.w3.org/2000/svg"
   xmlns:svg="http://www.w3.org/2000/svg">
  <defs
     id="defs6" />
  <g
     id="g8"
     transform="matrix(1.3333333,0,0,-1.3333333,0,793.7008)">
    <g
       id="g10">
      <g
         id="g12">
        <g
           id="g14">
          <path
             d="m 677.5149,243.9808 v 5.9383 h -2.1163 v 1.2078 h 5.6687 v -1.2078 h -2.105 v -5.9383 z m 4.4688,0 v 7.1461 h 2.1668 l 1.281,-4.8747 1.2668,4.8747 h 2.1719 v -7.1461 h -1.3374 l -0.005,5.6256 -1.4094,-5.6256 h -1.3904 l -1.4017,5.6256 -0.005,-5.6256 h -1.3374 z"
             style="fill:#e3000f;fill-opacity:1;fill-rule:nonzero;stroke:none"
             id="path16" />
          <path
             d="m 447.6382,205.5081 h -8.6539 v 33.6535 h 26.6825 v -6.7303 h -18.0286 v -7.9327 h 14.1826 v -6.7315 h -14.1826 z m 43.0293,24.5194 c 0,1.9222 -0.9618,2.884 -2.8842,2.884 h -8.1734 c -1.9236,0 -2.8843,-0.9618 -2.8843,-2.884 v -15.3853 c 0,-1.9225 0.9607,-2.8842 2.8843,-2.8842 h 8.1734 c 1.9224,0 2.8842,0.9617 2.8842,2.8842 z m 8.6539,-15.3853 c 0,-3.3644 -0.7614,-5.8088 -2.2841,-7.3315 -1.5217,-1.5228 -3.966,-2.2828 -7.3316,-2.2828 h -12.0194 c -3.3645,0 -5.8088,0.76 -7.3316,2.2828 -1.5227,1.5227 -2.283,3.9671 -2.283,7.3315 v 15.3853 c 0,3.3656 0.7603,5.8085 2.283,7.3313 1.5228,1.5227 3.9671,2.2841 7.3316,2.2841 h 12.0194 c 3.3656,0 5.8099,-0.7614 7.3316,-2.2841 1.5227,-1.5228 2.2841,-3.9657 2.2841,-7.3313 z m 26.4416,15.3853 c 0,1.9222 -0.9618,2.884 -2.8843,2.884 h -8.1734 c -1.9236,0 -2.8842,-0.9618 -2.8842,-2.884 v -15.3853 c 0,-1.9225 0.9606,-2.8842 2.8842,-2.8842 h 8.1734 c 1.9225,0 2.8843,0.9617 2.8843,2.8842 z m 8.6536,-15.3853 c 0,-3.3644 -0.7614,-5.8088 -2.2839,-7.3315 -1.5216,-1.5228 -3.9659,-2.2828 -7.3315,-2.2828 h -12.0195 c -3.3644,0 -5.8087,0.76 -7.3315,2.2828 -1.5228,1.5227 -2.283,3.9671 -2.283,7.3315 v 15.3853 c 0,3.3656 0.7602,5.8085 2.283,7.3313 1.5228,1.5227 3.9671,2.2841 7.3315,2.2841 h 12.0195 c 3.3656,0 5.8099,-0.7614 7.3315,-2.2841 1.5225,-1.5228 2.2839,-3.9657 2.2839,-7.3313 z m 23.5576,24.5194 c 3.6215,0 6.3697,-0.9366 8.244,-2.8125 1.876,-1.8743 2.8137,-4.6236 2.8137,-8.2452 v -11.5381 c 0,-3.6215 -0.9377,-6.3697 -2.8137,-8.2454 -1.8743,-1.8743 -4.6225,-2.8123 -8.244,-2.8123 h -18.7509 v 33.6535 z m 2.4038,-11.0577 c 0,2.8854 -1.4431,4.3274 -4.3274,4.3274 h -8.1734 v -20.1929 h 8.1734 c 2.8843,0 4.3274,1.4431 4.3274,4.3274 z m 47.2586,-22.5958 h -8.6536 v 13.7024 h -12.0194 v -13.7024 h -8.6539 v 33.6535 h 8.6539 v -13.2208 h 12.0194 v 13.2208 h 8.6536 z m 27.4037,33.6535 h 8.6536 v -24.5194 c 0,-3.3644 -0.7614,-5.8088 -2.2842,-7.3315 -1.5213,-1.5228 -3.9656,-2.2828 -7.3312,-2.2828 h -11.0577 c -3.3658,0 -5.8087,0.76 -7.3315,2.2828 -1.5228,1.5227 -2.2842,3.9671 -2.2842,7.3315 v 24.5194 h 8.6539 v -24.5194 c 0,-1.9225 0.9618,-2.8842 2.8854,-2.8842 h 7.2116 c 1.9225,0 2.8843,0.9617 2.8843,2.8842 z m 14.4221,0 h 19.2311 c 3.1413,0 5.4482,-0.7123 6.923,-2.1393 1.4749,-1.4255 2.2111,-3.5977 2.2111,-6.5146 0,-1.9224 -0.4159,-3.4855 -1.2493,-4.6868 -0.8331,-1.2024 -1.8592,-2.0435 -3.077,-2.5248 2.5957,-0.7047 4.3591,-2.4355 5.2881,-5.1922 0.3203,-0.9936 0.4816,-2.147 0.4816,-3.4617 0,-3.1399 -0.7373,-5.4482 -2.2122,-6.9231 -1.4737,-1.4734 -3.7817,-2.211 -6.9231,-2.211 h -20.6733 z m 21.1547,-23.076 c 0,1.9225 -0.9618,2.8843 -2.8854,2.8843 h -9.6154 v -6.7315 h 9.6154 c 1.9236,0 2.8854,0.9618 2.8854,2.8854 z m -1.4431,13.4615 c 0,1.9224 -0.9607,2.8842 -2.8843,2.8842 h -8.1734 v -6.7314 h 8.1734 c 1.9236,0 2.8843,0.9618 2.8843,2.8854 z"
             style="fill:#00893c;fill-opacity:1;fill-rule:nonzero;stroke:none"
             id="path18" />
          <g
             id="g20">
            <path
               d="m 420.6909,213.035 0.0252,-2.8225 c -3.4866,-4.7727 -6.9936,-7.16 -10.5208,-7.16 -2.9157,0 -4.6842,1.5253 -5.2968,4.587 -0.2055,1.0276 -0.3075,2.7292 -0.3126,5.0941 l 0.0164,10.5534 c -0.019,2.9988 -0.1375,4.9907 -0.3339,5.9763 -0.3405,1.7019 -1.1738,2.5526 -2.5024,2.5526 -0.9239,0 -2.492,-0.3529 -4.7271,-1.0587 l -0.0113,1.868 13.9507,4.8557 -0.3529,-9.7012 0.0365,-14.9729 c 10e-4,-2.3448 0.0717,-3.8398 0.2004,-4.4827 0.2634,-1.3173 0.9856,-1.9715 2.1796,-1.9715 1.9814,0 4.5343,2.2311 7.649,6.6824"
               style="fill:#e41115;fill-opacity:1;fill-rule:nonzero;stroke:none"
               id="path22" />
            <path
               d="m 270.5865,214.6623 c 0,-4.4926 -1.6401,-7.876 -4.9187,-10.169 -2.283,-1.5769 -4.6692,-2.3661 -7.16,-2.3661 -4.6894,0 -8.6122,0.9757 -11.7664,2.9271 -3.4866,2.1679 -5.2299,5.1568 -5.2299,8.9853 v 24.7473 c 0,1.1738 -0.0833,1.9199 -0.2483,2.2527 -0.0833,0.1652 -0.3328,0.3316 -0.7475,0.498 -1.3289,0.4978 -3.6105,0.7461 -6.8488,0.7461 v 0.561 h 23.9698 v -0.561 c -1.91,0 -3.4554,-0.0618 -4.6378,-0.1865 -1.1837,-0.1248 -2.0446,-0.29 -2.584,-0.4978 -0.5395,-0.2081 -0.851,-0.3946 -0.934,-0.5598 -0.2081,-0.3745 -0.3116,-1.1206 -0.3116,-2.2414 v -23.4717 c 0,-4.1511 0.6228,-7.1184 1.8683,-8.9034 1.4936,-2.158 4.1913,-3.2371 8.0927,-3.2371 2.1594,0 4.2545,0.7676 6.2889,2.3043 2.8641,2.1583 4.2962,5.2288 4.2962,9.2134 v 16.2502 c 0,4.2744 -0.6644,7.2317 -1.993,8.8719 -1.3286,1.6387 -3.5068,2.4579 -6.5373,2.4579 v 0.561 h 16.7479 v -0.561 c -3.1135,0 -5.1885,-0.8711 -6.226,-2.6144 -0.7475,-1.2555 -1.1205,-3.3517 -1.1205,-6.2977 z"
               style="fill:#e41115;fill-opacity:1;fill-rule:nonzero;stroke:none"
               id="path24" />
            <path
               d="m 403.6518,242.826 1.209,4.1295 7.3894,5.593 -1.4749,-5.593 z"
               style="fill:#e3000f;fill-opacity:1;fill-rule:nonzero;stroke:none"
               id="path26" />
            <path
               d="m 345.6431,220.2982 h -0.5281 c -3.439,-11.4962 -7.8925,-17.2457 -13.3608,-17.2457 -3.2383,0 -5.239,1.9097 -6.003,5.7279 -0.2179,1.0891 -0.3251,2.4594 -0.3302,4.0882 l -0.0516,14.8909 c 0.004,2.3233 -0.072,3.8384 -0.2131,4.5442 -0.2509,1.2558 -0.9669,1.8783 -2.1606,1.8783 -1.9916,0 -4.5556,-2.221 -7.7159,-6.662 l 10e-4,2.8023 c 3.4639,4.7724 6.9721,7.1586 10.5318,7.1586 2.9359,0 4.7121,-1.5139 5.3198,-4.5544 0.2016,-1.0071 0.3076,-2.7289 0.3062,-5.1568 l -0.005,-14.9215 c 0.008,-1.3386 0.0632,-2.293 0.1754,-2.854 0.3277,-1.6387 1.0851,-2.4593 2.2777,-2.4593 1.5253,0 3.4503,1.8368 5.7962,5.5202 2.3471,3.6731 4.3325,7.9591 5.9398,12.8463 l -0.0102,10.8953 6.4,0.3741 -0.3719,-9.3495 0.0227,-15.0046 c -0.003,-2.3244 0.0731,-3.8384 0.2154,-4.5544 0.256,-1.277 0.9834,-1.9097 2.177,-1.9097 2.0033,0 4.5683,2.2198 7.706,6.662 v -2.8021 c -3.4869,-4.7727 -6.9936,-7.16 -10.5321,-7.16 -2.9359,0 -4.7146,1.5253 -5.3272,4.587 -0.2055,1.0276 -0.3013,2.7493 -0.295,5.1571 l 0.0354,7.5016 z"
               style="fill:#e41115;fill-opacity:1;fill-rule:nonzero;stroke:none"
               id="path28" />
            <path
               d="m 362.1501,227.7255 -1.8717,1.5404 c 1.6979,2.8301 3.5421,4.9175 5.544,6.2764 2.0194,1.3488 3.8749,2.0333 5.5703,2.0407 0.6492,0.002 1.1886,-0.1551 1.6512,-0.4827 0.4439,-0.3164 0.7413,-0.7929 0.8864,-1.4131 0.1763,-0.7538 0.2772,-1.5228 0.2897,-2.3168 0.0153,-0.7954 -0.0615,-2.6762 -0.2557,-5.6449 3.0354,3.9745 5.1633,6.4352 6.3899,7.3681 2.0698,1.5857 4.1079,2.3888 6.1211,2.3975 1.311,0.006 2.569,-0.6088 3.7741,-1.8493 1.1899,-1.2265 2.08,-3.1022 2.6648,-5.6032 1.4624,-6.2462 0.9051,-12.1961 -1.6815,-17.8495 -2.5917,-5.6424 -6.2513,-8.4798 -10.9922,-8.5014 -1.8541,-0.009 -3.8395,0.4867 -5.9258,1.4698 l -0.2937,-12.7973 c -0.0176,-0.7676 0.0238,-1.4029 0.1386,-1.8933 0.2268,-0.9655 0.745,-1.6526 1.5693,-2.0585 1.2645,-0.6429 3.7326,-1.1611 7.4046,-1.5556 l -0.0578,-1.9072 c -4.233,0.2976 -7.5407,0.4414 -9.9258,0.4312 -2.4633,-0.0114 -5.6058,-0.1854 -9.4391,-0.5208 l 0.0593,1.9086 c 1.9097,0.2205 3.2145,0.769 3.8962,1.6464 0.6934,0.89 1.0426,2.4556 1.059,4.7069 l 0.1262,29.4318 c 0.0428,5.4845 -0.008,8.53 -0.154,9.1528 -0.1576,0.6744 -0.566,1.0035 -1.2013,1.0009 -1.1395,-0.006 -2.9117,-1.669 -5.3461,-4.9779 z m 12.0812,-18.3033 c 2.5302,-2.0285 4.8609,-3.0382 7.0203,-3.028 3.0986,0.0139 5.2603,2.448 6.4755,7.2885 1.2138,4.8393 1.2895,9.5564 0.2154,14.1474 -0.3478,1.4811 -0.9391,2.5906 -1.7799,3.3557 -0.8407,0.7511 -1.8175,1.1318 -2.9296,1.127 -1.2452,-0.007 -2.5072,-0.6216 -3.7853,-1.8456 -1.9704,-1.8907 -3.3721,-3.7778 -4.2089,-5.6359 -0.5851,-1.3538 -0.904,-3.6734 -0.938,-6.9848 z"
               style="fill:#e41115;fill-opacity:1;fill-rule:nonzero;stroke:none"
               id="path30" />
            <path
               d="m 301.8523,220.3084 h -0.5598 c -1.3136,-5.1055 -3.2547,-9.2551 -5.8226,-12.4506 -2.5739,-3.2069 -5.2526,-4.8053 -8.055,-4.8053 -4.3061,0 -7.0024,2.6875 -8.075,8.0524 -0.7288,3.6419 -0.4439,7.4602 0.8634,11.4562 1.3096,3.9832 3.3681,7.3352 6.1566,10.0542 1.8793,1.8051 3.88,3.009 5.9865,3.6317 2.1189,0.6126 5.3044,0.9238 9.5487,0.9238 0.3921,4.0048 1.0248,7.0657 1.8984,9.182 0.8649,2.1178 2.293,4.0995 4.2721,5.9361 3.3619,3.164 7.465,4.7423 12.2905,4.7423 2.0029,0 3.8599,-0.2081 5.5856,-0.6341 l -3.2901,-4.3061 c -2.6269,1.0488 -4.7878,1.5783 -6.4679,1.5783 -3.2485,0 -5.4595,-1.1837 -6.6395,-3.5385 -1.1685,-2.3561 -1.7572,-6.7768 -1.7711,-13.2511 l 0.1437,-24.063 c -0.008,-2.3445 0.0516,-3.8384 0.1817,-4.4926 0.2633,-1.3173 0.9856,-1.9715 2.1793,-1.9715 2.0233,0 4.5997,2.2198 7.7363,6.662 l -0.0139,-2.8336 c -3.4793,-4.7525 -6.9885,-7.1285 -10.527,-7.1285 -2.9472,0 -4.726,1.5253 -5.3385,4.587 -0.1993,0.9961 -0.2937,2.7179 -0.2962,5.1673 z m -0.0467,12.1719 c -2.7366,1.1308 -5.3839,1.7017 -7.9365,1.7017 -3.6734,0 -6.1415,-2.3343 -7.4097,-6.9934 -1.5126,-5.5202 -1.8278,-10.4805 -0.9479,-14.8799 0.6378,-3.1853 1.8997,-4.7738 3.778,-4.7738 1.7433,0 3.8863,1.8368 6.4199,5.51 2.5364,3.6632 4.5723,7.8559 6.1024,12.5552 l -0.006,6.8802 z"
               style="fill:#e41115;fill-opacity:1;fill-rule:nonzero;stroke:none"
               id="path32" />
          </g>
          <path
             d="m 194.5755,208.8992 h -4.5343 l 0.1839,8.176 c 0.0834,4.0161 0.0808,7.8242 -0.01,11.4358 -0.0354,0.8912 -0.0731,1.442 -0.1273,1.6702 -0.1111,0.4665 -0.3832,0.6947 -0.8294,0.6947 -0.3115,0 -0.7288,-0.2069 -1.2518,-0.6227 -0.532,-0.4249 -1.4283,-1.4624 -2.6736,-3.1125 l -1.1863,1.059 c 1.4522,2.0949 3.028,3.6732 4.7296,4.7209 1.6917,1.0474 3.062,1.5667 4.0995,1.5667 0.3631,0 0.6743,-0.0831 0.9201,-0.2495 0.2585,-0.1652 0.4122,-0.3733 0.4714,-0.6227 0.0643,-0.2699 0.0947,-0.9644 0.0958,-2.1065 l -0.0289,-5.4683 c 1.2807,3.2171 2.9322,5.9562 4.9629,8.2389 0.9757,1.0905 1.872,1.6401 2.7014,1.6401 0.6126,0 1.1685,-0.1978 1.6665,-0.5913 0.4978,-0.3946 0.8042,-0.8506 0.9303,-1.3802 0.131,-0.5496 0.0414,-1.0071 -0.261,-1.3904 -0.3025,-0.3846 -1.1798,-0.8407 -2.6309,-1.3702 -1.3853,-0.508 -2.4531,-1.1206 -3.2295,-1.8252 -0.7738,-0.7161 -1.5429,-1.8066 -2.3258,-3.2687 -0.7727,-1.4635 -1.2606,-2.7292 -1.4508,-3.8083 -0.1891,-1.0789 -0.2673,-3.5901 -0.2472,-7.513 l 0.0253,-5.8728 z m 20.6331,38.6626 c 0.6225,0 1.19,-0.2078 1.6914,-0.6126 0.5031,-0.4147 0.8271,-0.9442 0.9797,-1.5882 0.2092,-0.881 0.083,-1.6603 -0.3694,-2.3346 -0.4513,-0.6744 -1.0576,-1.0061 -1.8252,-1.0061 -0.6027,0 -1.16,0.2081 -1.6654,0.633 -0.5068,0.4261 -0.8331,0.9757 -0.9958,1.6603 -0.2143,0.9025 -0.1071,1.6701 0.3226,2.3043 0.4413,0.6327 1.0627,0.9439 1.8621,0.9439 z m -7.2522,-20.1713 -1.5593,1.0576 c 1.4825,2.2311 2.9548,3.808 4.3906,4.7522 1.4357,0.9443 2.7467,1.4117 3.9089,1.4117 0.6429,0 1.175,-0.146 1.5846,-0.426 0.4085,-0.2798 0.6758,-0.6642 0.7917,-1.152 0.1386,-0.58 0.0794,-3.081 -0.1828,-7.4804 -0.4173,-7.1915 -0.4553,-11.5291 -0.106,-13.0028 0.072,-0.2999 0.2018,-0.5394 0.3934,-0.7362 0.1916,-0.1964 0.3631,-0.301 0.5281,-0.301 0.644,0 1.9981,1.2869 4.0629,3.8597 l 1.4647,-1.1824 c -2.1442,-2.6359 -3.7755,-4.3262 -4.877,-5.0638 -1.1007,-0.7361 -2.0535,-1.099 -2.8628,-1.099 -0.716,0 -1.33,0.2282 -1.8507,0.6744 -0.5218,0.4462 -0.8759,1.0675 -1.0664,1.8669 -0.6012,2.5325 -0.5482,8.7267 0.1613,18.5743 0.0343,0.4666 0.009,0.8813 -0.0779,1.2444 -0.0959,0.4045 -0.3317,0.6126 -0.696,0.6126 -0.4045,0 -0.8319,-0.1664 -1.2744,-0.4879 -0.4399,-0.3316 -1.355,-1.3691 -2.7329,-3.1223"
             style="fill:#00893c;fill-opacity:1;fill-rule:nonzero;stroke:none"
             id="path34" />
          <path
             d="m 179.0138,251.1734 0.3113,-13.7591 h -1.2453 c -0.5913,3.4453 -2.0333,6.2147 -4.3376,8.3109 -2.3133,2.0965 -4.8041,3.1439 -7.4814,3.1439 -2.075,0 -3.7151,-0.5496 -4.9176,-1.6602 -1.2141,-1.099 -1.8164,-2.376 -1.8164,-3.8081 0,-0.9127 0.218,-1.722 0.6429,-2.4381 0.5811,-0.9439 1.5253,-1.8881 2.8338,-2.8221 0.9541,-0.6645 3.1538,-1.857 6.599,-3.5586 4.8354,-2.3661 8.0926,-4.6075 9.7744,-6.7139 1.6702,-2.1064 2.5008,-4.5142 2.5008,-7.2332 0,-3.4438 -1.3488,-6.4012 -4.0363,-8.8818 -2.6875,-2.4797 -6.101,-3.725 -10.2421,-3.725 -1.2972,0 -2.5311,0.1347 -3.6834,0.3946 -1.1622,0.2597 -2.6144,0.7574 -4.3577,1.4936 -0.9756,0.4048 -1.7747,0.6026 -2.4077,0.6026 -0.5295,0 -1.0792,-0.208 -1.6702,-0.6125 -0.5913,-0.4147 -1.0689,-1.0375 -1.432,-1.8783 h -1.0588 v 15.5642 h 1.0588 c 0.8926,-4.3679 2.6143,-7.7097 5.157,-10.0026 2.5526,-2.2929 5.2917,-3.4452 8.2389,-3.4452 2.2717,0 4.0881,0.6227 5.4369,1.8581 1.349,1.2342 2.0233,2.666 2.0233,4.3163 0,0.9655 -0.2596,1.9097 -0.7778,2.8222 -0.5193,0.9127 -1.2971,1.775 -2.3561,2.6044 -1.0576,0.8193 -2.9257,1.8882 -5.6033,3.2069 -3.7565,1.8365 -6.4539,3.4137 -8.0926,4.7106 -1.6299,1.2971 -2.8854,2.7493 -3.7667,4.3478 -0.8824,1.6086 -1.3184,3.3721 -1.3184,5.292 0,3.2887 1.2036,6.0911 3.6216,8.4041 2.4077,2.3145 5.4481,3.4665 9.1213,3.4665 1.3376,0 2.6348,-0.1562 3.8902,-0.4776 0.9556,-0.2483 2.1178,-0.6948 3.4867,-1.349 1.3702,-0.6543 2.3244,-0.9757 2.874,-0.9757 0.5295,0 0.9442,0.1565 1.2456,0.4779 0.3013,0.3215 0.5913,1.0993 0.8509,2.3244 z"
             style="fill:#00893c;fill-opacity:1;fill-rule:nonzero;stroke:none"
             id="path36" />
        </g>
        <g
           id="g38">
          <path
             d="m 406.4363,292.7962 c 7.348,10.1424 0.6494,41.8178 -3.5382,52.4356 -6.4959,16.4718 -5.4368,32.3424 8.0473,45.0125 7.4866,7.0375 19.5035,10.6579 29.5679,10.6579 7.6844,0 11.7938,-0.8144 17.4727,-2.0848 -0.2658,0.8761 -1.7319,2.0925 -3.0897,3.0656 -9.6106,5.186 -20.6076,8.1321 -32.2932,8.1321 -37.6103,0 -68.0969,-30.4869 -68.0969,-68.0973 0,-11.5569 2.8828,-22.4379 7.9616,-31.9717 1.8984,-3.5045 4.0439,-6.7541 6.3343,-9.3231 4.6704,-5.2402 4.7501,-6.2399 11.4069,-11.615 3.6621,-2.9571 14.8661,-10.508 19.9095,-10.4715 -6.3672,8.4748 -22.4836,28.069 -25.0526,52.2431 -0.3856,3.634 -2.4645,15.5716 1.1786,24.939 3.7466,-11.8948 6.9698,-17.5295 13.434,-27.6418 4.1144,-6.4287 9.7027,-15.4077 12.757,-22.1947 1.7257,-3.8333 3.2573,-8.297 4.0008,-13.0859"
             style="fill:#00893c;fill-opacity:1;fill-rule:evenodd;stroke:none"
             id="path40" />
          <path
             d="m 479.3097,367.5603 c 0.2888,-1.3136 0.6329,-2.5753 0.9504,-3.9053 1.5721,-6.6042 2.6688,-9.9408 2.5288,-17.329 -0.1309,-6.9458 -3.7148,-5.6121 -4.2242,-0.7135 -0.4184,4.0212 -0.4751,11.2456 -3.3468,18.6364 -1.5642,4.0237 -1.3638,8.6638 -6.1226,7.9188 -0.1485,-2.1316 1.1018,-5.3915 1.6515,-7.2646 0.6253,-2.1266 1.3702,-4.8722 1.7433,-7.223 0.6216,-3.9279 1.7901,-9.7404 1.3966,-13.2638 -0.3818,-3.43 -2.9106,-3.3784 -3.8988,-1.1231 -0.5295,1.2075 -0.6378,3.1249 -0.8016,5.7166 -0.3152,4.9728 -2.2351,13.3886 -3.8083,17.7715 -1.1597,3.2346 -1.2164,5.4607 -5.1659,5.2742 -0.203,-3.5927 2.7658,-11.7675 3.9659,-19.2351 0.324,-2.0081 0.7889,-5.6055 0.7274,-7.6314 -0.1287,-4.2959 -3.2876,-4.3112 -3.6683,-1.0449 -0.6191,5.3056 -1.8468,11.0123 -3.0608,16.0645 -0.5168,2.1532 -1.1509,4.3478 -1.9197,6.937 -1.5607,3.5824 -1.9754,4.8846 -5.752,4.7789 0.1122,-1.6767 3.3015,-13.4793 4.1927,-16.5614 0.8546,-2.9574 1.7016,-8.6411 1.5871,-14.2155 -0.0683,-3.3264 -0.358,-6.4491 -0.9255,-8.568 -1.1761,-4.3894 -1.8856,-6.6005 0.6695,-10.4615 1.7762,-2.6836 4.2242,-5.186 4.3592,-8.3625 0.1788,-4.189 -2.3675,-7.8976 -4.0907,-11.2986 -0.745,-1.4672 -1.0905,-1.8856 -1.95,-3.1337 -2.999,-4.354 -2.2048,-3.8157 -5.6123,-7.2632 -0.4107,-0.4162 -0.6743,-0.6934 -1.1798,-1.1977 -4.3752,-4.3704 -7.9869,-6.7138 -13.6003,-9.4252 -9.7844,-4.7284 -18.4181,-4.0958 -27.663,-4.7625 9.5499,-1.8643 21.5518,-1.0678 31.0918,1.6651 8.452,2.4205 16.0546,7.4387 21.8936,14.0114 6.2045,6.986 6.2575,12.3965 14.1838,20.7439 l 2.249,2.2198 c 0.7475,0.5911 0.9757,0.561 1.7206,1.268 0.0454,0.0431 0.1071,0.1085 0.1514,0.1528 1.9287,1.8881 3.7071,2.5234 5.5828,5.1695 4.2231,5.9587 4.2987,18.5995 4.1525,25.916 -0.1361,6.8687 -1.8355,12.138 -3.3809,18.8328 0.002,-0.002 -1.8958,5.1305 -5.5945,5.2263 z"
             style="fill:#e41115;fill-opacity:1;fill-rule:evenodd;stroke:none"
             id="path42" />
          <path
             d="m 432.7092,386.1009 c -15.8391,-22.6715 14.5973,-44.5675 -5.5893,-81.0596 29.7544,25.094 29.7025,55.6968 5.5893,81.0596"
             style="fill:#00893c;fill-opacity:1;fill-rule:evenodd;stroke:none"
             id="path44" />
          <path
             d="m 413.8951,368.9357 c -12.2689,-20.0331 11.9818,-40.2903 -0.9076,-70.1065 28.0476,26.1819 12.9084,57.1654 0.9076,70.1065"
             style="fill:#00893c;fill-opacity:1;fill-rule:evenodd;stroke:none"
             id="path46" />
        </g>
      </g>
    </g>
  </g>
</svg>
